<?xml version="1.0" encoding="utf-8" standalone="no"?>
<!DOCTYPE svg PUBLIC "-//W3C//DTD SVG 1.1//EN"
  "http://www.w3.org/Graphics/SVG/1.1/DTD/svg11.dtd">
<svg xmlns:xlink="http://www.w3.org/1999/xlink" width="460.8pt" height="345.6pt" viewBox="0 0 460.8 345.6" xmlns="http://www.w3.org/2000/svg" version="1.1">
 <metadata>
  <rdf:RDF xmlns:dc="http://purl.org/dc/elements/1.1/" xmlns:cc="http://creativecommons.org/ns#" xmlns:rdf="http://www.w3.org/1999/02/22-rdf-syntax-ns#">
   <cc:Work>
    <dc:type rdf:resource="http://purl.org/dc/dcmitype/StillImage"/>
    <dc:date>2022-04-05T17:29:41.685926</dc:date>
    <dc:format>image/svg+xml</dc:format>
    <dc:creator>
     <cc:Agent>
      <dc:title>Matplotlib v3.5.0, https://matplotlib.org/</dc:title>
     </cc:Agent>
    </dc:creator>
   </cc:Work>
  </rdf:RDF>
 </metadata>
 <defs>
  <style type="text/css">*{stroke-linejoin: round; stroke-linecap: butt}</style>
 </defs>
 <g id="figure_1">
  <g id="patch_1">
   <path d="M 0 345.6 
L 460.8 345.6 
L 460.8 0 
L 0 0 
z
" style="fill: #ffffff"/>
  </g>
  <g id="axes_1">
   <g id="patch_2">
    <path d="M 311.366203 40.130772 
Q 281.390953 58.553155 252.368225 76.390131 
" clip-path="url(#p409d8f8d4d)" style="fill: none; stroke: #000000; stroke-opacity: 0.5; stroke-linecap: round"/>
    <path d="M 256.82328 75.999638 
L 252.368225 76.390131 
L 254.728863 72.591791 
L 256.82328 75.999638 
z
" clip-path="url(#p409d8f8d4d)" style="fill-opacity: 0.5; stroke: #000000; stroke-opacity: 0.5; stroke-linecap: round"/>
   </g>
   <g id="patch_3">
    <path d="M 315.643671 45.013714 
Q 304.627719 58.554224 294.317342 71.22746 
" clip-path="url(#p409d8f8d4d)" style="fill: none; stroke: #000000; stroke-opacity: 0.5; stroke-linecap: round"/>
    <path d="M 298.39311 69.386779 
L 294.317342 71.22746 
L 295.290257 66.862436 
L 298.39311 69.386779 
z
" clip-path="url(#p409d8f8d4d)" style="fill-opacity: 0.5; stroke: #000000; stroke-opacity: 0.5; stroke-linecap: round"/>
   </g>
   <g id="patch_4">
    <path d="M 327.866224 49.35798 
Q 327.866224 58.555031 327.866224 66.634047 
" clip-path="url(#p409d8f8d4d)" style="fill: none; stroke: #000000; stroke-opacity: 0.5; stroke-linecap: round"/>
    <path d="M 329.866224 62.634047 
L 327.866224 66.634047 
L 325.866224 62.634047 
L 329.866224 62.634047 
z
" clip-path="url(#p409d8f8d4d)" style="fill-opacity: 0.5; stroke: #000000; stroke-opacity: 0.5; stroke-linecap: round"/>
   </g>
   <g id="patch_5">
    <path d="M 340.088777 45.013714 
Q 351.104729 58.554224 361.415107 71.22746 
" clip-path="url(#p409d8f8d4d)" style="fill: none; stroke: #000000; stroke-opacity: 0.5; stroke-linecap: round"/>
    <path d="M 360.442191 66.862436 
L 361.415107 71.22746 
L 357.339338 69.386779 
L 360.442191 66.862436 
z
" clip-path="url(#p409d8f8d4d)" style="fill-opacity: 0.5; stroke: #000000; stroke-opacity: 0.5; stroke-linecap: round"/>
   </g>
   <g id="patch_6">
    <path d="M 344.366245 40.130772 
Q 374.341495 58.553155 403.364223 76.390131 
" clip-path="url(#p409d8f8d4d)" style="fill: none; stroke: #000000; stroke-opacity: 0.5; stroke-linecap: round"/>
    <path d="M 401.003585 72.591791 
L 403.364223 76.390131 
L 398.909168 75.999638 
L 401.003585 72.591791 
z
" clip-path="url(#p409d8f8d4d)" style="fill-opacity: 0.5; stroke: #000000; stroke-opacity: 0.5; stroke-linecap: round"/>
   </g>
   <g id="patch_7">
    <path d="M 218.419204 97.254739 
Q 188.443954 115.677122 159.421226 133.514098 
" clip-path="url(#p409d8f8d4d)" style="fill: none; stroke: #000000; stroke-opacity: 0.5; stroke-linecap: round"/>
    <path d="M 163.876281 133.123604 
L 159.421226 133.514098 
L 161.781864 129.715758 
L 163.876281 133.123604 
z
" clip-path="url(#p409d8f8d4d)" style="fill-opacity: 0.5; stroke: #000000; stroke-opacity: 0.5; stroke-linecap: round"/>
   </g>
   <g id="patch_8">
    <path d="M 222.696672 102.137681 
Q 211.68072 115.678191 201.370343 128.351427 
" clip-path="url(#p409d8f8d4d)" style="fill: none; stroke: #000000; stroke-opacity: 0.5; stroke-linecap: round"/>
    <path d="M 205.446111 126.510745 
L 201.370343 128.351427 
L 202.343258 123.986403 
L 205.446111 126.510745 
z
" clip-path="url(#p409d8f8d4d)" style="fill-opacity: 0.5; stroke: #000000; stroke-opacity: 0.5; stroke-linecap: round"/>
   </g>
   <g id="patch_9">
    <path d="M 234.919225 106.481947 
Q 234.919225 115.678998 234.919225 123.758014 
" clip-path="url(#p409d8f8d4d)" style="fill: none; stroke: #000000; stroke-opacity: 0.5; stroke-linecap: round"/>
    <path d="M 236.919225 119.758014 
L 234.919225 123.758014 
L 232.919225 119.758014 
L 236.919225 119.758014 
z
" clip-path="url(#p409d8f8d4d)" style="fill-opacity: 0.5; stroke: #000000; stroke-opacity: 0.5; stroke-linecap: round"/>
   </g>
   <g id="patch_10">
    <path d="M 247.141778 102.137681 
Q 258.15773 115.678191 268.468108 128.351427 
" clip-path="url(#p409d8f8d4d)" style="fill: none; stroke: #000000; stroke-opacity: 0.5; stroke-linecap: round"/>
    <path d="M 267.495192 123.986403 
L 268.468108 128.351427 
L 264.392339 126.510745 
L 267.495192 123.986403 
z
" clip-path="url(#p409d8f8d4d)" style="fill-opacity: 0.5; stroke: #000000; stroke-opacity: 0.5; stroke-linecap: round"/>
   </g>
   <g id="patch_11">
    <path d="M 129.453139 159.010615 
Q 117.767377 172.799883 106.804447 185.736207 
" clip-path="url(#p409d8f8d4d)" style="fill: none; stroke: #000000; stroke-opacity: 0.5; stroke-linecap: round"/>
    <path d="M 110.916321 183.977658 
L 106.804447 185.736207 
L 107.864732 181.391578 
L 110.916321 183.977658 
z
" clip-path="url(#p409d8f8d4d)" style="fill-opacity: 0.5; stroke: #000000; stroke-opacity: 0.5; stroke-linecap: round"/>
   </g>
   <g id="patch_12">
    <path d="M 141.972226 163.605914 
Q 141.972226 172.802965 141.972226 180.881981 
" clip-path="url(#p409d8f8d4d)" style="fill: none; stroke: #000000; stroke-opacity: 0.5; stroke-linecap: round"/>
    <path d="M 143.972226 176.881981 
L 141.972226 180.881981 
L 139.972226 176.881981 
L 143.972226 176.881981 
z
" clip-path="url(#p409d8f8d4d)" style="fill-opacity: 0.5; stroke: #000000; stroke-opacity: 0.5; stroke-linecap: round"/>
   </g>
   <g id="patch_13">
    <path d="M 154.194779 159.261648 
Q 165.210731 172.802158 175.521109 185.475394 
" clip-path="url(#p409d8f8d4d)" style="fill: none; stroke: #000000; stroke-opacity: 0.5; stroke-linecap: round"/>
    <path d="M 174.548193 181.11037 
L 175.521109 185.475394 
L 171.44534 183.634712 
L 174.548193 181.11037 
z
" clip-path="url(#p409d8f8d4d)" style="fill-opacity: 0.5; stroke: #000000; stroke-opacity: 0.5; stroke-linecap: round"/>
   </g>
   <g id="patch_14">
    <path d="M 80.315592 215.48608 
Q 66.773784 229.924787 53.996812 243.548003 
" clip-path="url(#p409d8f8d4d)" style="fill: none; stroke: #000000; stroke-opacity: 0.5; stroke-linecap: round"/>
    <path d="M 58.191966 241.99859 
L 53.996812 243.548003 
L 55.274374 239.262232 
L 58.191966 241.99859 
z
" clip-path="url(#p409d8f8d4d)" style="fill-opacity: 0.5; stroke: #000000; stroke-opacity: 0.5; stroke-linecap: round"/>
   </g>
   <g id="patch_15">
    <path d="M 93.562331 220.729881 
Q 93.562331 229.926932 93.562331 238.005948 
" clip-path="url(#p409d8f8d4d)" style="fill: none; stroke: #000000; stroke-opacity: 0.5; stroke-linecap: round"/>
    <path d="M 95.562331 234.005948 
L 93.562331 238.005948 
L 91.562331 234.005948 
L 95.562331 234.005948 
z
" clip-path="url(#p409d8f8d4d)" style="fill-opacity: 0.5; stroke: #000000; stroke-opacity: 0.5; stroke-linecap: round"/>
   </g>
   <g id="patch_16">
    <path d="M 39.986777 277.853848 
Q 39.986777 287.050898 39.986777 295.129915 
" clip-path="url(#p409d8f8d4d)" style="fill: none; stroke: #000000; stroke-opacity: 0.5; stroke-linecap: round"/>
    <path d="M 41.986777 291.129915 
L 39.986777 295.129915 
L 37.986777 291.129915 
L 41.986777 291.129915 
z
" clip-path="url(#p409d8f8d4d)" style="fill-opacity: 0.5; stroke: #000000; stroke-opacity: 0.5; stroke-linecap: round"/>
   </g>
   <g id="PathCollection_1">
    <defs>
     <path id="C0_0_2e41a4c2b7" d="M 0 19.364917 
C 5.135636 19.364917 10.061621 17.324507 13.693064 13.693064 
C 17.324507 10.061621 19.364917 5.135636 19.364917 -0 
C 19.364917 -5.135636 17.324507 -10.061621 13.693064 -13.693064 
C 10.061621 -17.324507 5.135636 -19.364917 0 -19.364917 
C -5.135636 -19.364917 -10.061621 -17.324507 -13.693064 -13.693064 
C -17.324507 -10.061621 -19.364917 -5.135636 -19.364917 0 
C -19.364917 5.135636 -17.324507 10.061621 -13.693064 13.693064 
C -10.061621 17.324507 -5.135636 19.364917 0 19.364917 
z
"/>
    </defs>
    <g clip-path="url(#p409d8f8d4d)">
     <use xlink:href="#C0_0_2e41a4c2b7" x="327.866224" y="29.990083" style="fill-opacity: 0.5; stroke: #000000; stroke-opacity: 0.5"/>
    </g>
    <g clip-path="url(#p409d8f8d4d)">
     <use xlink:href="#C0_0_2e41a4c2b7" x="234.919225" y="87.11405" style="fill: #ff0000; fill-opacity: 0.5; stroke: #ff0000; stroke-opacity: 0.5"/>
    </g>
    <g clip-path="url(#p409d8f8d4d)">
     <use xlink:href="#C0_0_2e41a4c2b7" x="281.392725" y="87.11405" style="fill: #ff0000; fill-opacity: 0.5; stroke: #ff0000; stroke-opacity: 0.5"/>
    </g>
    <g clip-path="url(#p409d8f8d4d)">
     <use xlink:href="#C0_0_2e41a4c2b7" x="327.866224" y="87.11405" style="fill: #ff0000; fill-opacity: 0.5; stroke: #ff0000; stroke-opacity: 0.5"/>
    </g>
    <g clip-path="url(#p409d8f8d4d)">
     <use xlink:href="#C0_0_2e41a4c2b7" x="374.339724" y="87.11405" style="fill: #ff0000; fill-opacity: 0.5; stroke: #ff0000; stroke-opacity: 0.5"/>
    </g>
    <g clip-path="url(#p409d8f8d4d)">
     <use xlink:href="#C0_0_2e41a4c2b7" x="420.813223" y="87.11405" style="fill: #ff0000; fill-opacity: 0.5; stroke: #ff0000; stroke-opacity: 0.5"/>
    </g>
    <g clip-path="url(#p409d8f8d4d)">
     <use xlink:href="#C0_0_2e41a4c2b7" x="141.972226" y="144.238017" style="fill: #00ff00; fill-opacity: 0.5; stroke: #00ff00; stroke-opacity: 0.5"/>
    </g>
    <g clip-path="url(#p409d8f8d4d)">
     <use xlink:href="#C0_0_2e41a4c2b7" x="188.445726" y="144.238017" style="fill: #00ff00; fill-opacity: 0.5; stroke: #00ff00; stroke-opacity: 0.5"/>
    </g>
    <g clip-path="url(#p409d8f8d4d)">
     <use xlink:href="#C0_0_2e41a4c2b7" x="234.919225" y="144.238017" style="fill: #00ff00; fill-opacity: 0.5; stroke: #00ff00; stroke-opacity: 0.5"/>
    </g>
    <g clip-path="url(#p409d8f8d4d)">
     <use xlink:href="#C0_0_2e41a4c2b7" x="281.392725" y="144.238017" style="fill: #00ff00; fill-opacity: 0.5; stroke: #00ff00; stroke-opacity: 0.5"/>
    </g>
    <g clip-path="url(#p409d8f8d4d)">
     <use xlink:href="#C0_0_2e41a4c2b7" x="93.562331" y="201.361983" style="fill: #0000ff; fill-opacity: 0.5; stroke: #0000ff; stroke-opacity: 0.5"/>
    </g>
    <g clip-path="url(#p409d8f8d4d)">
     <use xlink:href="#C0_0_2e41a4c2b7" x="141.972226" y="201.361983" style="fill: #0000ff; fill-opacity: 0.5; stroke: #0000ff; stroke-opacity: 0.5"/>
    </g>
    <g clip-path="url(#p409d8f8d4d)">
     <use xlink:href="#C0_0_2e41a4c2b7" x="188.445726" y="201.361983" style="fill: #0000ff; fill-opacity: 0.5; stroke: #0000ff; stroke-opacity: 0.5"/>
    </g>
    <g clip-path="url(#p409d8f8d4d)">
     <use xlink:href="#C0_0_2e41a4c2b7" x="39.986777" y="258.48595" style="fill: #333333; fill-opacity: 0.5; stroke: #333333; stroke-opacity: 0.5"/>
    </g>
    <g clip-path="url(#p409d8f8d4d)">
     <use xlink:href="#C0_0_2e41a4c2b7" x="93.562331" y="258.48595" style="fill: #333333; fill-opacity: 0.5; stroke: #333333; stroke-opacity: 0.5"/>
    </g>
    <g clip-path="url(#p409d8f8d4d)">
     <use xlink:href="#C0_0_2e41a4c2b7" x="39.986777" y="315.609917" style="fill: #eeeeee; fill-opacity: 0.5; stroke: #eeeeee; stroke-opacity: 0.5"/>
    </g>
   </g>
   <g id="text_1">
    <g clip-path="url(#p409d8f8d4d)">
     <!-- A -->
     <g style="opacity: 0.5" transform="translate(323.222787 33.301333)scale(0.12 -0.12)">
      <defs>
       <path id="DejaVuSans-Bold-41" d="M 3419 850 
L 1538 850 
L 1241 0 
L 31 0 
L 1759 4666 
L 3194 4666 
L 4922 0 
L 3713 0 
L 3419 850 
z
M 1838 1716 
L 3116 1716 
L 2478 3572 
L 1838 1716 
z
" transform="scale(0.015625)"/>
      </defs>
      <use xlink:href="#DejaVuSans-Bold-41"/>
     </g>
    </g>
   </g>
   <g id="text_2">
    <g clip-path="url(#p409d8f8d4d)">
     <!-- B -->
     <g style="opacity: 0.5" transform="translate(230.3461 90.4253)scale(0.12 -0.12)">
      <defs>
       <path id="DejaVuSans-Bold-42" d="M 2456 2859 
Q 2741 2859 2887 2984 
Q 3034 3109 3034 3353 
Q 3034 3594 2887 3720 
Q 2741 3847 2456 3847 
L 1791 3847 
L 1791 2859 
L 2456 2859 
z
M 2497 819 
Q 2859 819 3042 972 
Q 3225 1125 3225 1434 
Q 3225 1738 3044 1889 
Q 2863 2041 2497 2041 
L 1791 2041 
L 1791 819 
L 2497 819 
z
M 3616 2497 
Q 4003 2384 4215 2081 
Q 4428 1778 4428 1338 
Q 4428 663 3972 331 
Q 3516 0 2584 0 
L 588 0 
L 588 4666 
L 2394 4666 
Q 3366 4666 3802 4372 
Q 4238 4078 4238 3431 
Q 4238 3091 4078 2852 
Q 3919 2613 3616 2497 
z
" transform="scale(0.015625)"/>
      </defs>
      <use xlink:href="#DejaVuSans-Bold-42"/>
     </g>
    </g>
   </g>
   <g id="text_3">
    <g clip-path="url(#p409d8f8d4d)">
     <!-- C -->
     <g style="opacity: 0.5" transform="translate(276.989287 90.4253)scale(0.12 -0.12)">
      <defs>
       <path id="DejaVuSans-Bold-43" d="M 4288 256 
Q 3956 84 3597 -3 
Q 3238 -91 2847 -91 
Q 1681 -91 1000 561 
Q 319 1213 319 2328 
Q 319 3447 1000 4098 
Q 1681 4750 2847 4750 
Q 3238 4750 3597 4662 
Q 3956 4575 4288 4403 
L 4288 3438 
Q 3953 3666 3628 3772 
Q 3303 3878 2944 3878 
Q 2300 3878 1931 3465 
Q 1563 3053 1563 2328 
Q 1563 1606 1931 1193 
Q 2300 781 2944 781 
Q 3303 781 3628 887 
Q 3953 994 4288 1222 
L 4288 256 
z
" transform="scale(0.015625)"/>
      </defs>
      <use xlink:href="#DejaVuSans-Bold-43"/>
     </g>
    </g>
   </g>
   <g id="text_4">
    <g clip-path="url(#p409d8f8d4d)">
     <!-- D -->
     <g style="opacity: 0.5" transform="translate(322.885287 90.4253)scale(0.12 -0.12)">
      <defs>
       <path id="DejaVuSans-Bold-44" d="M 1791 3756 
L 1791 909 
L 2222 909 
Q 2959 909 3348 1275 
Q 3738 1641 3738 2338 
Q 3738 3031 3350 3393 
Q 2963 3756 2222 3756 
L 1791 3756 
z
M 588 4666 
L 1856 4666 
Q 2919 4666 3439 4514 
Q 3959 4363 4331 4000 
Q 4659 3684 4818 3271 
Q 4978 2859 4978 2338 
Q 4978 1809 4818 1395 
Q 4659 981 4331 666 
Q 3956 303 3431 151 
Q 2906 0 1856 0 
L 588 0 
L 588 4666 
z
" transform="scale(0.015625)"/>
      </defs>
      <use xlink:href="#DejaVuSans-Bold-44"/>
     </g>
    </g>
   </g>
   <g id="text_5">
    <g clip-path="url(#p409d8f8d4d)">
     <!-- E -->
     <g style="opacity: 0.5" transform="translate(370.240974 90.4253)scale(0.12 -0.12)">
      <defs>
       <path id="DejaVuSans-Bold-45" d="M 588 4666 
L 3834 4666 
L 3834 3756 
L 1791 3756 
L 1791 2888 
L 3713 2888 
L 3713 1978 
L 1791 1978 
L 1791 909 
L 3903 909 
L 3903 0 
L 588 0 
L 588 4666 
z
" transform="scale(0.015625)"/>
      </defs>
      <use xlink:href="#DejaVuSans-Bold-45"/>
     </g>
    </g>
   </g>
   <g id="text_6">
    <g clip-path="url(#p409d8f8d4d)">
     <!-- F -->
     <g style="opacity: 0.5" transform="translate(416.714473 90.4253)scale(0.12 -0.12)">
      <defs>
       <path id="DejaVuSans-Bold-46" d="M 588 4666 
L 3834 4666 
L 3834 3756 
L 1791 3756 
L 1791 2888 
L 3713 2888 
L 3713 1978 
L 1791 1978 
L 1791 0 
L 588 0 
L 588 4666 
z
" transform="scale(0.015625)"/>
      </defs>
      <use xlink:href="#DejaVuSans-Bold-46"/>
     </g>
    </g>
   </g>
   <g id="text_7">
    <g clip-path="url(#p409d8f8d4d)">
     <!-- CC -->
     <g style="opacity: 0.5" transform="translate(133.165351 147.549267)scale(0.12 -0.12)">
      <use xlink:href="#DejaVuSans-Bold-43"/>
      <use xlink:href="#DejaVuSans-Bold-43" x="73.388672"/>
     </g>
    </g>
   </g>
   <g id="text_8">
    <g clip-path="url(#p409d8f8d4d)">
     <!-- DD -->
     <g style="opacity: 0.5" transform="translate(178.483851 147.549267)scale(0.12 -0.12)">
      <use xlink:href="#DejaVuSans-Bold-44"/>
      <use xlink:href="#DejaVuSans-Bold-44" x="83.007812"/>
     </g>
    </g>
   </g>
   <g id="text_9">
    <g clip-path="url(#p409d8f8d4d)">
     <!-- EE -->
     <g style="opacity: 0.5" transform="translate(226.721725 147.549267)scale(0.12 -0.12)">
      <use xlink:href="#DejaVuSans-Bold-45"/>
      <use xlink:href="#DejaVuSans-Bold-45" x="68.310547"/>
     </g>
    </g>
   </g>
   <g id="text_10">
    <g clip-path="url(#p409d8f8d4d)">
     <!-- FF -->
     <g style="opacity: 0.5" transform="translate(273.195225 147.549267)scale(0.12 -0.12)">
      <use xlink:href="#DejaVuSans-Bold-46"/>
      <use xlink:href="#DejaVuSans-Bold-46" x="68.310547"/>
     </g>
    </g>
   </g>
   <g id="text_11">
    <g clip-path="url(#p409d8f8d4d)">
     <!-- DDD -->
     <g style="opacity: 0.5" transform="translate(78.619518 204.673233)scale(0.12 -0.12)">
      <use xlink:href="#DejaVuSans-Bold-44"/>
      <use xlink:href="#DejaVuSans-Bold-44" x="83.007812"/>
      <use xlink:href="#DejaVuSans-Bold-44" x="166.015625"/>
     </g>
    </g>
   </g>
   <g id="text_12">
    <g clip-path="url(#p409d8f8d4d)">
     <!-- EEE -->
     <g style="opacity: 0.5" transform="translate(129.675976 204.673233)scale(0.12 -0.12)">
      <use xlink:href="#DejaVuSans-Bold-45"/>
      <use xlink:href="#DejaVuSans-Bold-45" x="68.310547"/>
      <use xlink:href="#DejaVuSans-Bold-45" x="136.621094"/>
     </g>
    </g>
   </g>
   <g id="text_13">
    <g clip-path="url(#p409d8f8d4d)">
     <!-- FFF -->
     <g style="opacity: 0.5" transform="translate(176.149476 204.673233)scale(0.12 -0.12)">
      <use xlink:href="#DejaVuSans-Bold-46"/>
      <use xlink:href="#DejaVuSans-Bold-46" x="68.310547"/>
      <use xlink:href="#DejaVuSans-Bold-46" x="136.621094"/>
     </g>
    </g>
   </g>
   <g id="text_14">
    <g clip-path="url(#p409d8f8d4d)">
     <!-- EEEE -->
     <g style="opacity: 0.5" transform="translate(23.591777 261.7972)scale(0.12 -0.12)">
      <use xlink:href="#DejaVuSans-Bold-45"/>
      <use xlink:href="#DejaVuSans-Bold-45" x="68.310547"/>
      <use xlink:href="#DejaVuSans-Bold-45" x="136.621094"/>
      <use xlink:href="#DejaVuSans-Bold-45" x="204.931641"/>
     </g>
    </g>
   </g>
   <g id="text_15">
    <g clip-path="url(#p409d8f8d4d)">
     <!-- FFFF -->
     <g style="opacity: 0.5" transform="translate(77.167331 261.7972)scale(0.12 -0.12)">
      <use xlink:href="#DejaVuSans-Bold-46"/>
      <use xlink:href="#DejaVuSans-Bold-46" x="68.310547"/>
      <use xlink:href="#DejaVuSans-Bold-46" x="136.621094"/>
      <use xlink:href="#DejaVuSans-Bold-46" x="204.931641"/>
     </g>
    </g>
   </g>
   <g id="text_16">
    <g clip-path="url(#p409d8f8d4d)">
     <!-- FFFFF -->
     <g style="opacity: 0.5" transform="translate(19.493027 318.921167)scale(0.12 -0.12)">
      <use xlink:href="#DejaVuSans-Bold-46"/>
      <use xlink:href="#DejaVuSans-Bold-46" x="68.310547"/>
      <use xlink:href="#DejaVuSans-Bold-46" x="136.621094"/>
      <use xlink:href="#DejaVuSans-Bold-46" x="204.931641"/>
      <use xlink:href="#DejaVuSans-Bold-46" x="273.242188"/>
     </g>
    </g>
   </g>
  </g>
 </g>
 <defs>
  <clipPath id="p409d8f8d4d">
   <rect x="0" y="0" width="460.8" height="345.6"/>
  </clipPath>
 </defs>
</svg>
